<?xml version="1.0" encoding="UTF-8" standalone="no"?>
<!DOCTYPE svg PUBLIC "-//W3C//DTD SVG 1.1//EN" "http://www.w3.org/Graphics/SVG/1.1/DTD/svg11.dtd">
<svg xmlns="http://www.w3.org/2000/svg" xmlns:xl="http://www.w3.org/1999/xlink" xmlns:dc="http://purl.org/dc/elements/1.1/" version="1.1" viewBox="1241 1240 192 192" width="192" height="192">
  <defs>
    <clipPath id="artboard_clip_path">
      <path d="M 1241 1240 L 1433 1240 L 1433 1432 L 1241 1432 Z"/>
    </clipPath>
  </defs>
  <g id="Canvas_6" stroke-opacity="1" fill-opacity="1" stroke="none" fill="none" stroke-dasharray="none">
    <title>Canvas 6</title>
    <rect fill="white" x="1241" y="1240" width="192" height="192"/>
    <g id="Canvas_6_Layer_1" clip-path="url(#artboard_clip_path)">
      <title>Layer 1</title>
      <g id="Graphic_4">
        <rect x="1241" y="1240" width="192" height="192" fill="#fffcf5"/>
      </g>
      <g id="Group_10">
        <title/>
        <g id="Graphic_7">
          <path d="M 1266.2063 1367.5 L 1254.0144 1305.2236 L 1264.592 1305.2236 L 1272.2385 1348.0015 L 1281.5842 1305.2236 L 1293.8611 1305.2236 L 1302.8245 1348.7236 L 1310.6833 1305.2236 L 1321.0486 1305.2236 L 1308.6443 1367.5 L 1297.6843 1367.5 L 1287.489 1320.9414 L 1277.3787 1367.5 Z" fill="#141202"/>
        </g>
        <g id="Graphic_8">
          <path d="M 1321.176 1367.5 L 1338.6355 1335.0024 L 1322.7903 1305.2236 L 1334.8547 1305.2236 L 1345.0925 1325.232 L 1355.118 1305.2236 L 1367.055 1305.2236 L 1351.2097 1335.4697 L 1368.6692 1367.5 L 1356.2224 1367.5 L 1344.8801 1345.9624 L 1333.5378 1367.5 Z" fill="#141202"/>
        </g>
        <g id="Graphic_9">
          <path d="M 1373.8518 1305.2236 L 1392.6707 1305.2236 C 1397.4285 1305.2236 1401.018 1305.7546 1403.4395 1306.8167 C 1405.8609 1307.8787 1408.091 1309.6699 1410.1301 1312.1904 C 1412.1692 1314.711 1413.7693 1317.9819 1414.9304 1322.0034 C 1416.0916 1326.025 1416.6721 1331.0234 1416.6721 1336.999 C 1416.6721 1342.3799 1416.0632 1347.0598 1414.8455 1351.0388 C 1413.6277 1355.0178 1412.0842 1358.1684 1410.2151 1360.4907 C 1408.346 1362.813 1406.0874 1364.5618 1403.4395 1365.737 C 1400.7915 1366.9124 1397.386 1367.5 1393.2229 1367.5 L 1373.8518 1367.5 Z M 1384.132 1315.7588 L 1384.132 1357.0073 L 1391.8635 1357.0073 C 1395.177 1357.0073 1397.5771 1356.6958 1399.064 1356.0728 C 1400.5508 1355.4497 1401.7685 1354.508 1402.7173 1353.2478 C 1403.666 1351.9875 1404.4519 1349.998 1405.075 1347.2793 C 1405.698 1344.5605 1406.0095 1340.978 1406.0095 1336.5317 C 1406.0095 1331.9155 1405.691 1328.2764 1405.0537 1325.6143 C 1404.4165 1322.9521 1403.4253 1320.8565 1402.08 1319.3271 C 1400.7349 1317.7978 1399.0994 1316.7925 1397.1736 1316.311 C 1395.7292 1315.9429 1392.9397 1315.7588 1388.805 1315.7588 Z" fill="#141202"/>
        </g>
      </g>
    </g>
  </g>
</svg>
